<svg width="62" height="50" viewBox="0 0 62 50" fill="none" xmlns="http://www.w3.org/2000/svg">
<path d="M56.3227 9.41324C56.3227 11.0917 56.3561 12.7701 56.3073 14.4459C56.2867 15.1711 56.5283 15.5519 57.2402 15.8575C59.2526 16.72 60.8898 18.054 61.5195 20.1364C62.7043 24.0579 61.7842 26.6843 57.7928 28.3213C56.5515 28.8315 56.2662 29.4402 56.2945 30.6187C56.3741 33.8667 56.3381 37.12 56.3176 40.3706C56.3047 42.3909 55.2433 43.9424 53.5136 44.5796C51.8199 45.2012 50.0927 44.7609 48.8951 43.2172C48.3528 42.5204 47.7231 42.0412 46.97 41.6061C39.676 37.379 31.8038 34.6541 23.438 33.2088C22.5308 33.0534 21.6209 32.8929 20.7188 32.7116C20.2176 32.6105 20.1945 32.8385 20.2382 33.2192C20.4464 35.0375 20.634 36.8584 20.8345 38.6767C21.0786 40.9145 21.3768 43.1446 21.5618 45.3877C21.7417 47.5323 20.0274 49.5785 17.884 49.9152C15.1391 50.3478 12.9493 49.1045 12.4276 46.6465C11.9059 44.1936 11.5383 41.7097 11.1528 39.2309C10.8727 37.423 10.6799 35.6047 10.4383 33.7916C10.2995 32.7478 10.279 32.7167 9.16869 32.6261C7.68573 32.5017 6.59341 31.8076 5.96887 30.5307C5.76583 30.1136 5.62447 29.8624 5.0976 29.7795C2.36042 29.347 0.499649 27.7152 0.119271 24.3791C-0.0503569 22.882 -0.0631837 21.346 0.240091 19.8386C0.772106 17.194 2.16768 15.8135 4.9614 15.368C5.57566 15.2695 5.89692 15.052 6.17192 14.5702C6.86586 13.3606 7.98644 12.8193 9.39487 12.7804C12.1757 12.7027 14.954 12.6639 17.7323 12.5318C22.2737 12.3168 26.6584 11.3714 30.9865 10.1359C36.5148 8.55851 41.8221 6.43199 46.9546 3.9066C47.592 3.5932 48.1292 3.25908 48.4479 2.55974C49.332 0.62232 50.9923 -0.27904 52.8042 0.0758094C54.7832 0.46433 56.1685 2.03911 56.3176 4.06978C56.3253 4.17339 56.3227 4.27961 56.3227 4.38321C56.3227 6.06162 56.3227 7.73742 56.3227 9.41583V9.41324ZM48.1369 22.8146V22.0272C48.1369 17.0438 48.142 12.063 48.1317 7.07952C48.1317 6.09009 48.1009 6.09011 47.1705 6.54597C41.4957 9.33555 35.5587 11.475 29.4161 13.0913C27.27 13.6559 25.1112 14.1817 22.888 14.4277C21.6595 14.5624 21.5438 14.6945 21.5438 15.5674C21.5413 20.2348 21.5618 24.9023 21.5515 29.5723C21.5515 30.1499 21.7109 30.4504 22.3508 30.4815C22.6695 30.497 22.9805 30.6472 23.2992 30.7042C28.4909 31.6133 33.5771 32.8773 38.4707 34.8122C41.4906 36.0062 44.4462 37.3194 47.2733 38.8916C48.0855 39.3423 48.0983 39.3268 48.1343 38.3943C48.1472 38.0809 48.1343 37.7649 48.1343 37.4515C48.1343 32.5743 48.1343 27.697 48.1343 22.8172L48.1369 22.8146ZM18.9943 22.61H18.9865C18.9865 20.3566 18.9788 18.1032 18.9917 15.8523C18.9943 15.3058 18.9043 14.9639 18.1975 14.9898C15.3113 15.0934 12.4225 15.1349 9.5362 15.2488C8.33596 15.2955 8.25628 15.4017 8.25114 16.5776C8.23315 20.613 8.23058 24.6459 8.25114 28.6813C8.25628 29.9556 8.43107 30.1214 9.78038 30.1369C12.4507 30.168 15.1237 30.1603 17.794 30.1577C18.9608 30.1577 18.9814 30.1396 18.9891 29.0595C19.0045 26.9122 18.9943 24.7624 18.9943 22.6152V22.61ZM53.7552 22.4054H53.7449C53.7449 16.5879 53.7449 10.7705 53.7423 4.95303C53.7423 4.48162 53.7655 3.99987 53.6704 3.54401C53.5162 2.811 52.8762 2.37327 52.1308 2.41212C51.3829 2.45097 50.91 2.84984 50.7481 3.53105C50.653 3.93252 50.6479 4.36247 50.6479 4.77948C50.6428 16.4662 50.6453 28.1555 50.6479 39.8422C50.6479 40.311 50.6479 40.7954 50.7507 41.2486C50.9023 41.9169 51.3367 42.3495 52.1103 42.3754C52.889 42.4013 53.529 42.005 53.6601 41.2668C53.7706 40.6529 53.7475 40.0132 53.75 39.3864C53.7552 33.7269 53.7526 28.0648 53.7526 22.4054H53.7552ZM15.4166 32.4007C14.8486 32.4007 14.4683 32.3955 14.0879 32.4007C12.7 32.424 12.6846 32.4525 12.8825 33.7114C13.5045 37.6276 14.1162 41.5465 14.7304 45.4654C14.9746 47.0221 15.7456 47.6515 17.2106 47.4883C18.4802 47.3458 19.1022 46.4859 18.9737 44.9733C18.9069 44.1936 18.7604 43.4192 18.673 42.6396C18.3723 39.9406 18.1076 37.2391 17.7709 34.5454C17.6886 33.8875 17.9868 33.0534 17.447 32.6002C16.8611 32.108 15.9795 32.4784 15.4166 32.4007ZM5.88664 22.5427H5.89179C5.89179 21.2321 5.9072 19.9188 5.88664 18.6082C5.87379 17.883 5.61163 17.7095 4.87914 17.8416C3.83053 18.0332 2.74851 19.103 2.6637 20.297C2.56346 21.7579 2.55063 23.2394 2.68428 24.6951C2.80251 25.9875 3.87679 27.0107 5.03849 27.2282C5.52167 27.3189 5.8995 27.2516 5.89179 26.6299C5.8738 25.2675 5.88664 23.9025 5.88664 22.5401V22.5427ZM56.3253 22.2111C56.3253 23.3637 56.3176 24.5163 56.333 25.669C56.3356 25.8762 56.2328 26.231 56.716 26.1196C57.9496 25.8373 59.394 24.3325 59.5559 23.1358C59.7795 21.4781 58.4868 19.2117 56.8933 18.414C56.4435 18.1886 56.3227 18.3311 56.3227 18.7507C56.3253 19.9033 56.3227 21.0559 56.3227 22.2085L56.3253 22.2111Z" fill="#FCCB37"/>
</svg>
