<?xml version="1.0" encoding="UTF-8"?>
<svg id="Capa_2" data-name="Capa 2" xmlns="http://www.w3.org/2000/svg" viewBox="0 0 808.13 206.44">
  <defs>
    <style>
      .cls-1 {
        fill: #111f78;
      }

      .cls-2 {
        fill: #2291ea;
      }
    </style>
  </defs>
  <g id="Capa_1-2" data-name="Capa 1">
    <g>
      <path class="cls-1" d="M388.32,41.68c1.29,12.39-17.76,13.92-18.55,1.52-.75-11.83,17.3-13.46,18.55-1.52Z"/>
      <path class="cls-2" d="M808.07,139.54c1.29,12.39-17.76,13.92-18.55,1.52-.75-11.83,17.3-13.46,18.55-1.52Z"/>
      <path class="cls-1" d="M316.21,59.7c10.28,0,18.52,3.24,24.72,9.73,6.19,6.48,9.29,15.28,9.29,26.38v53.81h-15.25v-52.94c0-7.13-1.93-12.65-5.79-16.56-3.86-3.91-9.18-5.87-15.95-5.87-7.6,0-13.73,2.37-18.4,7.1-4.68,4.73-7.01,12.01-7.01,21.82v46.45h-15.25V26.92h15.25v47.68c6.19-9.93,15.66-14.9,28.4-14.9Z"/>
      <rect class="cls-1" x="371.43" y="61.98" width="15.25" height="87.65"/>
      <path class="cls-1" d="M425.24,76.71c5.02-10.87,14.14-16.3,27.35-16.3v15.95c-7.48-.35-13.91,1.64-19.28,5.96-5.38,4.33-8.07,11.28-8.07,20.86v46.45h-15.25V61.98h15.25v14.72Z"/>
      <path class="cls-1" d="M535.32,61.98h15.25v87.65h-15.25v-15.08c-7.6,11.57-18.64,17.36-33.13,17.36-12.27,0-22.73-4.47-31.38-13.41-8.65-8.94-12.97-19.84-12.97-32.69s4.32-23.75,12.97-32.69c8.65-8.94,19.11-13.41,31.38-13.41,14.49,0,25.53,5.79,33.13,17.36v-15.08ZM504.12,137.18c8.88,0,16.3-3.01,22.26-9.03,5.96-6.02,8.94-13.47,8.94-22.35s-2.98-16.33-8.94-22.35c-5.96-6.02-13.38-9.03-22.26-9.03s-16.13,3.01-22.09,9.03c-5.96,6.02-8.94,13.47-8.94,22.35s2.98,16.33,8.94,22.35c5.96,6.02,13.32,9.03,22.09,9.03Z"/>
      <path class="cls-2" d="M622.09,59.7c12.27,0,22.73,4.47,31.38,13.41,8.65,8.94,12.97,19.84,12.97,32.69s-4.33,23.75-12.97,32.69c-8.65,8.94-19.11,13.41-31.38,13.41-14.49,0-25.53-5.79-33.13-17.36v15.08h-15.25V26.92h15.25v50.13c7.59-11.57,18.64-17.36,33.13-17.36ZM620.16,137.18c8.76,0,16.13-3.01,22.09-9.03,5.96-6.02,8.94-13.47,8.94-22.35s-2.98-16.33-8.94-22.35c-5.96-6.02-13.32-9.03-22.09-9.03s-16.3,3.01-22.26,9.03c-5.96,6.02-8.94,13.47-8.94,22.35s2.98,16.33,8.94,22.35c5.96,6.02,13.38,9.03,22.26,9.03Z"/>
      <path class="cls-2" d="M684.67,149.63V21.66h15.25v127.96h-15.25Z"/>
      <path class="cls-2" d="M784.41,61.98h16.3l-35.76,93.08c-3.74,9.93-8.97,17.5-15.69,22.7-6.72,5.2-14.46,7.51-23.22,6.92v-14.2c10.71.82,18.56-5.15,23.57-17.92l1.67-3.29-38.21-87.29h16.3l29.23,67.19,25.82-67.19Z"/>
      <path class="cls-1" d="M169.18,150.95l-.11.78c-1.25,10.14-4.48,15.16-5.59,16.09-.74-.28-2.59-1.38-3.96-3.63-2.9-4.76-3.92-11.99-4.79-19.6-5.24-45.74-4.98-92.08.78-137.75l.23-1.82L117.46.2l-.23,1.82c-3.13,24.81-4.74,50.17-4.81,75.41-4.38.71-8.12,1.26-11.67,1.71-20.31,2.55-41.22,3.2-62.17,1.95-.1-24.6,1.55-49.51,4.91-74.05l.25-1.81L5.52,0l-.25,1.81C-1.47,51.2-1.75,100.8,4.45,149.23c1.45,11.37,3.29,22.85,5.47,34.18l4.51,20.27,37.64-8.4-4.34-19.45c-1.99-10.39-3.69-20.99-5.03-31.49-1.02-8-1.87-16.24-2.53-24.53,6.4.32,12.75.48,18.9.48,15.56,0,31.19-.97,46.46-2.88,2.42-.3,5-.66,8-1.11.67,11,1.62,21.99,2.85,32.68,1.33,11.58,3.2,23.83,10.16,35.27,8.33,13.69,22.59,22.2,37.22,22.2,2.17,0,4.35-.19,6.46-.57,20.05-3.59,33.56-21.47,37.04-48.97l1.54-9.25-38.05-6.34-1.61,9.64Z"/>
      <path class="cls-2" d="M219.4,116.31l-17.3-24.56c-.53-.75-1.32-1.25-2.22-1.41-.9-.16-1.82.05-2.57.58l-24.56,17.3c-2.39,1.69-2.97,5.01-1.28,7.4l6.37,9.04c4.36,6.19,11.31,9.5,18.36,9.5,4.46,0,8.97-1.33,12.88-4.08l9.04-6.37c2.39-1.69,2.97-5.01,1.28-7.4Z"/>
    </g>
  </g>
</svg>