<svg width="161" height="41" viewBox="0 0 161 41" fill="none" xmlns="http://www.w3.org/2000/svg">
<g clip-path="url(#clip0_252_86)">
<path d="M77.3642 8.27805C77.6208 10.7388 73.826 11.0414 73.67 8.58063C73.5208 6.23189 77.1177 5.90758 77.3642 8.27805Z" fill="white"/>
<path d="M160.987 27.7136C161.243 30.1743 157.449 30.4769 157.293 28.0162C157.143 25.6674 160.74 25.3431 160.987 27.7136Z" fill="#2291EA"/>
<path d="M62.9966 11.8572C65.044 11.8572 66.6857 12.5008 67.9199 13.7897C69.154 15.0769 69.7711 16.8238 69.7711 19.0288V29.7176H66.7326V19.2043C66.7326 17.7884 66.3486 16.6918 65.5806 15.9144C64.8126 15.1371 63.7528 14.7476 62.4029 14.7476C60.8887 14.7476 59.668 15.2173 58.7356 16.1568C57.8033 17.0963 57.3388 18.5423 57.3388 20.4915V29.7176H54.3003V5.34766H57.3388V14.8178C58.573 12.8452 60.4594 11.8589 62.9966 11.8589V11.8572Z" fill="white"/>
<path d="M77.0356 12.3105H73.9971V29.7179H77.0356V12.3105Z" fill="white"/>
<path d="M84.7172 15.2342C85.7183 13.076 87.5344 11.9961 90.1654 11.9961V15.164C88.6746 15.0937 87.3952 15.4899 86.3236 16.3475C85.2521 17.2068 84.7172 18.5876 84.7172 20.49V29.7161H81.6787V12.3087H84.7172V15.2325V15.2342Z" fill="white"/>
<path d="M106.649 12.3102H109.687V29.7176H106.649V26.7236C105.135 29.0205 102.935 30.1706 100.049 30.1706C97.6039 30.1706 95.5196 29.283 93.7974 27.5076C92.0753 25.7323 91.2134 23.5674 91.2134 21.0148C91.2134 18.4621 92.0753 16.2972 93.7974 14.5219C95.5196 12.7466 97.6039 11.8589 100.049 11.8589C102.935 11.8589 105.135 13.0073 106.649 15.3059V12.3119V12.3102ZM100.433 27.2452C102.202 27.2452 103.681 26.6484 104.868 25.4531C106.055 24.2579 106.649 22.7784 106.649 21.0148C106.649 19.2511 106.055 17.7717 104.868 16.5764C103.681 15.3811 102.202 14.7844 100.433 14.7844C98.6637 14.7844 97.2199 15.3828 96.0327 16.5764C94.8455 17.7717 94.2519 19.2528 94.2519 21.0148C94.2519 22.7767 94.8455 24.2579 96.0327 25.4531C97.2199 26.6484 98.6872 27.2452 100.433 27.2452Z" fill="white"/>
<path d="M123.936 11.8572C126.381 11.8572 128.465 12.7449 130.187 14.5203C131.91 16.2956 132.771 18.4604 132.771 21.0131C132.771 23.5658 131.91 25.7306 130.187 27.506C128.465 29.2813 126.381 30.169 123.936 30.169C121.048 30.169 118.848 29.0205 117.336 26.722V29.716H114.297V5.34766H117.336V15.3043C118.848 13.0074 121.048 11.8572 123.936 11.8572ZM123.552 27.2452C125.298 27.2452 126.765 26.6484 127.952 25.4531C129.139 24.2579 129.733 22.7784 129.733 21.0148C129.733 19.2511 129.139 17.7717 127.952 16.5764C126.765 15.3812 125.298 14.7844 123.552 14.7844C121.806 14.7844 120.304 15.3828 119.117 16.5764C117.929 17.7717 117.336 19.2528 117.336 21.0148C117.336 22.7768 117.929 24.2579 119.117 25.4531C120.304 26.6484 121.781 27.2452 123.552 27.2452Z" fill="#2291EA"/>
<path d="M136.404 29.7175V4.30273H139.442V29.7175H136.404Z" fill="#2291EA"/>
<path d="M156.275 12.3105H159.523L152.398 30.7978C151.652 32.7704 150.61 34.2733 149.272 35.3064C147.934 36.3395 146.391 36.7975 144.646 36.6822V33.862C146.779 34.0242 148.343 32.839 149.341 30.303L149.675 29.6494L142.062 12.3122H145.31L151.132 25.6574L156.275 12.3122V12.3105Z" fill="#2291EA"/>
<path d="M33.7033 29.9785L33.6815 30.134C33.4333 32.1484 32.7894 33.1464 32.568 33.3303C32.4205 33.2751 32.0516 33.0561 31.7799 32.6098C31.2031 31.6653 30.9985 30.2293 30.8258 28.7164C29.7811 19.6324 29.8347 10.428 30.98 1.35909L31.0253 0.998002L23.4006 0.038449L23.3553 0.399535C22.7332 5.32769 22.4095 10.3645 22.3978 15.3779C21.5242 15.52 20.7796 15.6287 20.072 15.7173C16.0257 16.2221 11.8603 16.3525 7.68659 16.1051C7.66814 11.2187 7.99681 6.2722 8.6642 1.39921L8.71283 1.03812L1.09983 0L1.0512 0.361086C-0.293656 10.1689 -0.348992 20.0186 0.886864 29.6375C1.17696 31.8959 1.54252 34.1761 1.97683 36.4246L2.87564 40.45L10.3746 38.7817L9.50935 34.9184C9.11193 32.8538 8.77488 30.7508 8.50826 28.6646C8.30368 27.0748 8.13431 25.4382 8.00519 23.7932C9.28129 23.8568 10.5457 23.8885 11.7715 23.8885C14.8703 23.8885 17.9859 23.6963 21.0278 23.3151C21.5107 23.255 22.0239 23.1847 22.6225 23.0945C22.755 25.2794 22.9461 27.4609 23.191 29.5857C23.4559 31.8842 23.8299 34.3199 25.2166 36.5901C26.8767 39.3099 29.7174 40.9983 32.6318 40.9983C33.0644 40.9983 33.497 40.9599 33.9196 40.8847C37.9139 40.1708 40.6053 36.6202 41.2995 31.1587L41.6064 29.3215L34.0269 28.0627L33.7066 29.9768L33.7033 29.9785Z" fill="white"/>
<path d="M43.7093 23.101L40.2617 18.2246C40.156 18.0758 39.9984 17.9755 39.819 17.9454C39.6396 17.9137 39.4568 17.9555 39.3075 18.0608L34.4144 21.4961C33.9382 21.8321 33.8225 22.4908 34.1595 22.9656L35.4289 24.761C36.2976 25.9896 37.6827 26.6483 39.0879 26.6483C39.9766 26.6483 40.8737 26.3858 41.6552 25.8375L43.4561 24.5737C43.9324 24.2394 44.0481 23.5791 43.7127 23.1043L43.7093 23.101Z" fill="#2291EA"/>
</g>
<defs>
<clipPath id="clip0_252_86">
<rect width="161" height="41" fill="white"/>
</clipPath>
</defs>
</svg>
